# xmcd CD database file
#
# Track frame offsets:
#	150
#	15843
#	29283
#	44066
#	57734
#	70775
#	84255
#	99153
#	113164
#	128644
#	145265
#	164113
#	174391
#	186894
#	197967
#	212057
#	225535
#	236808
#
# Disc length: 3345 seconds
#
# Revision: 3
# Processed by: cddbd v1.5.2PL0 Copyright (c) Steve Scherf et al.
# Submitted via: CDex 1.50beta10
#
DISCID=fa0d0f12
DTITLE=Sam Taylor - Saxphone 4 波麗唱片
DYEAR=2000
DGENRE=Jazz
TTITLE0=路燈了解我心意
TTITLE1=生死與共
TTITLE2=海貓
TTITLE3=東京小夜曲
TTITLE4=窗緣風
TTITLE5=布麗魯之愛
TTITLE6=擁抱
TTITLE7=大阪戀情
TTITLE8=鉤線
TTITLE9=慕的燈光
TTITLE10=白色的房間
TTITLE11=白色的風
TTITLE12=在酒店
TTITLE13=不是陌生人
TTITLE14=我倆的秘密
TTITLE15=愛的呢喃
TTITLE16=再見吧22歲
TTITLE17=墮落之旅
EXTD=YEAR: 2000
EXTT0=
EXTT1=
EXTT2=
EXTT3=
EXTT4=
EXTT5=
EXTT6=
EXTT7=
EXTT8=
EXTT9=
EXTT10=
EXTT11=
EXTT12=
EXTT13=
EXTT14=
EXTT15=
EXTT16=
EXTT17=
PLAYORDER=
